
<svg width="53" height="50" viewBox="0 0 53 50" fill="none" xmlns="http://www.w3.org/2000/svg">
<path d="M2.415 5.05H6.965V32H2.415V5.05ZM14.84 11.7C16.7067 11.7 18.2933 12.0733 19.6 12.82C20.9067 13.5667 21.8983 14.64 22.575 16.04C23.275 17.4167 23.625 19.085 23.625 21.045V32H19.075V21.78C19.075 19.7033 18.585 18.14 17.605 17.09C16.6483 16.0167 15.2367 15.48 13.37 15.48C12.0867 15.48 10.955 15.7717 9.975 16.355C9.01833 16.915 8.27167 17.7083 7.735 18.735C7.22167 19.7617 6.965 20.9633 6.965 22.34L5.355 21.465C5.565 19.4117 6.10167 17.6617 6.965 16.215C7.82833 14.7683 8.93667 13.66 10.29 12.89C11.6433 12.0967 13.16 11.7 14.84 11.7ZM28.1865 5.05H32.7365V32H28.1865V5.05ZM40.6115 11.7C42.4782 11.7 44.0648 12.0733 45.3715 12.82C46.6782 13.5667 47.6698 14.64 48.3465 16.04C49.0465 17.4167 49.3965 19.085 49.3965 21.045V32H44.8465V21.78C44.8465 19.7033 44.3565 18.14 43.3765 17.09C42.4198 16.0167 41.0082 15.48 39.1415 15.48C37.8582 15.48 36.7265 15.7717 35.7465 16.355C34.7898 16.915 34.0432 17.7083 33.5065 18.735C32.9932 19.7617 32.7365 20.9633 32.7365 22.34L31.1265 21.465C31.3365 19.4117 31.8732 17.6617 32.7365 16.215C33.5998 14.7683 34.7082 13.66 36.0615 12.89C37.4148 12.0967 38.9315 11.7 40.6115 11.7Z" fill="black"/>
<mask id="mask0_2_4" style="mask-type:alpha" maskUnits="userSpaceOnUse" x="1" y="37" width="51" height="13">
<rect x="1.5" y="37.5" width="50" height="12" rx="6" fill="#D9D9D9" stroke="#A78BFA"/>
</mask>
<g mask="url(#mask0_2_4)">
<path d="M55.4348 23C55.4348 37.2648 42.5798 49 26.5 49C10.4202 49 -2.43478 37.2648 -2.43478 23C-2.43478 8.73516 10.4202 -3 26.5 -3C42.5798 -3 55.4348 8.73516 55.4348 23Z" stroke="#A78BFA" stroke-width="2"/>
</g>
</svg>
