<svg width="52" height="45" viewBox="0 0 52 45" fill="none" xmlns="http://www.w3.org/2000/svg">
<path d="M2.415 0.0499986H6.965V27H2.415V0.0499986ZM14.84 6.7C16.7067 6.7 18.2933 7.07333 19.6 7.82C20.9067 8.56667 21.8983 9.64 22.575 11.04C23.275 12.4167 23.625 14.085 23.625 16.045V27H19.075V16.78C19.075 14.7033 18.585 13.14 17.605 12.09C16.6483 11.0167 15.2367 10.48 13.37 10.48C12.0867 10.48 10.955 10.7717 9.975 11.355C9.01833 11.915 8.27167 12.7083 7.735 13.735C7.22167 14.7617 6.965 15.9633 6.965 17.34L5.355 16.465C5.565 14.4117 6.10167 12.6617 6.965 11.215C7.82833 9.76833 8.93667 8.66 10.29 7.89C11.6433 7.09667 13.16 6.7 14.84 6.7ZM28.1865 0.0499986H32.7365V27H28.1865V0.0499986ZM40.6115 6.7C42.4782 6.7 44.0648 7.07333 45.3715 7.82C46.6782 8.56667 47.6698 9.64 48.3465 11.04C49.0465 12.4167 49.3965 14.085 49.3965 16.045V27H44.8465V16.78C44.8465 14.7033 44.3565 13.14 43.3765 12.09C42.4198 11.0167 41.0082 10.48 39.1415 10.48C37.8582 10.48 36.7265 10.7717 35.7465 11.355C34.7898 11.915 34.0432 12.7083 33.5065 13.735C32.9932 14.7617 32.7365 15.9633 32.7365 17.34L31.1265 16.465C31.3365 14.4117 31.8732 12.6617 32.7365 11.215C33.5998 9.76833 34.7082 8.66 36.0615 7.89C37.4148 7.09667 38.9315 6.7 40.6115 6.7Z" fill="white"/>
<mask id="mask0_0_1" style="mask-type:alpha" maskUnits="userSpaceOnUse" x="0" y="32" width="52" height="13">
<rect x="0.5" y="32.5" width="51" height="12" rx="6" fill="#D9D9D9" stroke="#A78BFA"/>
</mask>
<g mask="url(#mask0_0_1)">
<path d="M55.5217 18C55.5217 32.2477 42.4232 44 26 44C9.57683 44 -3.52174 32.2477 -3.52174 18C-3.52174 3.7523 9.57684 -8 26 -8C42.4232 -8 55.5217 3.7523 55.5217 18Z" stroke="#A78BFA" stroke-width="2"/>
</g>
</svg>
