<svg width="272" height="51" viewBox="0 0 272 51" fill="none" xmlns="http://www.w3.org/2000/svg">
<path d="M0.415 1.05H4.965V28H0.415V1.05ZM12.84 7.7C14.7067 7.7 16.2933 8.07333 17.6 8.82C18.9067 9.56667 19.8983 10.64 20.575 12.04C21.275 13.4167 21.625 15.085 21.625 17.045V28H17.075V17.78C17.075 15.7033 16.585 14.14 15.605 13.09C14.6483 12.0167 13.2367 11.48 11.37 11.48C10.0867 11.48 8.955 11.7717 7.975 12.355C7.01833 12.915 6.27167 13.7083 5.735 14.735C5.22167 15.7617 4.965 16.9633 4.965 18.34L3.355 17.465C3.565 15.4117 4.10167 13.6617 4.965 12.215C5.82833 10.7683 6.93667 9.66 8.29 8.89C9.64333 8.09667 11.16 7.7 12.84 7.7ZM44.6665 28L43.8965 20.65L44.8065 18.095L43.8965 15.575L44.6665 8.19H49.3565L48.3065 18.095L49.3565 28H44.6665ZM46.0665 18.095C45.6232 20.1717 44.8882 21.9917 43.8615 23.555C42.8348 25.1183 41.5632 26.3317 40.0465 27.195C38.5532 28.0583 36.8848 28.49 35.0415 28.49C33.1048 28.49 31.3898 28.0583 29.8965 27.195C28.4032 26.3083 27.2365 25.0833 26.3965 23.52C25.5565 21.9567 25.1365 20.1483 25.1365 18.095C25.1365 16.0183 25.5565 14.21 26.3965 12.67C27.2365 11.1067 28.4032 9.89333 29.8965 9.03C31.3898 8.14333 33.1048 7.7 35.0415 7.7C36.8848 7.7 38.5532 8.13167 40.0465 8.995C41.5632 9.85833 42.8348 11.0717 43.8615 12.635C44.9115 14.175 45.6465 15.995 46.0665 18.095ZM29.7565 18.095C29.7565 19.425 30.0248 20.6033 30.5615 21.63C31.1215 22.6333 31.8798 23.4267 32.8365 24.01C33.7932 24.57 34.8898 24.85 36.1265 24.85C37.3865 24.85 38.5532 24.57 39.6265 24.01C40.6998 23.4267 41.6448 22.6333 42.4615 21.63C43.3015 20.6033 43.9665 19.425 44.4565 18.095C43.9665 16.765 43.3015 15.5983 42.4615 14.595C41.6448 13.5683 40.6998 12.775 39.6265 12.215C38.5532 11.6317 37.3865 11.34 36.1265 11.34C34.8898 11.34 33.7932 11.6317 32.8365 12.215C31.8798 12.775 31.1215 13.5683 30.5615 14.595C30.0248 15.5983 29.7565 16.765 29.7565 18.095ZM53.7353 8.19H58.2853V15.085L58.0753 15.785V19.775L58.2853 21V33.775H53.7353V8.19ZM56.5353 18.095C56.9786 15.995 57.7136 14.175 58.7403 12.635C59.767 11.0717 61.027 9.85833 62.5203 8.995C64.037 8.13167 65.717 7.7 67.5603 7.7C69.497 7.7 71.212 8.14333 72.7053 9.03C74.1986 9.89333 75.3653 11.1067 76.2053 12.67C77.0453 14.21 77.4653 16.0183 77.4653 18.095C77.4653 20.1483 77.0453 21.9567 76.2053 23.52C75.3653 25.0833 74.1986 26.3083 72.7053 27.195C71.212 28.0583 69.497 28.49 67.5603 28.49C65.717 28.49 64.0486 28.0583 62.5553 27.195C61.062 26.3317 59.7903 25.1183 58.7403 23.555C57.7136 21.9917 56.9786 20.1717 56.5353 18.095ZM72.8453 18.095C72.8453 16.765 72.5653 15.5983 72.0053 14.595C71.4686 13.5683 70.722 12.775 69.7653 12.215C68.8086 11.6317 67.712 11.34 66.4753 11.34C65.2386 11.34 64.072 11.6317 62.9753 12.215C61.902 12.775 60.957 13.5683 60.1403 14.595C59.3236 15.5983 58.6586 16.765 58.1453 18.095C58.6586 19.425 59.3236 20.6033 60.1403 21.63C60.957 22.6333 61.902 23.4267 62.9753 24.01C64.072 24.57 65.2386 24.85 66.4753 24.85C67.712 24.85 68.8086 24.57 69.7653 24.01C70.722 23.4267 71.4686 22.6333 72.0053 21.63C72.5653 20.6033 72.8453 19.425 72.8453 18.095ZM81.25 8.19H85.8V15.085L85.59 15.785V19.775L85.8 21V33.775H81.25V8.19ZM84.05 18.095C84.4933 15.995 85.2283 14.175 86.255 12.635C87.2816 11.0717 88.5416 9.85833 90.035 8.995C91.5516 8.13167 93.2316 7.7 95.075 7.7C97.0116 7.7 98.7266 8.14333 100.22 9.03C101.713 9.89333 102.88 11.1067 103.72 12.67C104.56 14.21 104.98 16.0183 104.98 18.095C104.98 20.1483 104.56 21.9567 103.72 23.52C102.88 25.0833 101.713 26.3083 100.22 27.195C98.7266 28.0583 97.0116 28.49 95.075 28.49C93.2316 28.49 91.5633 28.0583 90.07 27.195C88.5766 26.3317 87.305 25.1183 86.255 23.555C85.2283 21.9917 84.4933 20.1717 84.05 18.095ZM100.36 18.095C100.36 16.765 100.08 15.5983 99.52 14.595C98.9833 13.5683 98.2366 12.775 97.28 12.215C96.3233 11.6317 95.2266 11.34 93.99 11.34C92.7533 11.34 91.5866 11.6317 90.49 12.215C89.4166 12.775 88.4716 13.5683 87.655 14.595C86.8383 15.5983 86.1733 16.765 85.66 18.095C86.1733 19.425 86.8383 20.6033 87.655 21.63C88.4716 22.6333 89.4166 23.4267 90.49 24.01C91.5866 24.57 92.7533 24.85 93.99 24.85C95.2266 24.85 96.3233 24.57 97.28 24.01C98.2366 23.4267 98.9833 22.6333 99.52 21.63C100.08 20.6033 100.36 19.425 100.36 18.095ZM112.568 34.265C111.401 34.265 110.339 34.1133 109.383 33.81C108.449 33.53 107.574 33.1333 106.758 32.62V29.155C107.644 29.715 108.484 30.1233 109.278 30.38C110.094 30.6367 111.004 30.765 112.008 30.765C112.964 30.765 113.816 30.5433 114.563 30.1C115.309 29.68 115.928 28.9333 116.418 27.86L125.343 8.19H130.173L119.918 29.4C119.358 30.5667 118.693 31.5 117.923 32.2C117.176 32.9233 116.348 33.4483 115.438 33.775C114.551 34.1017 113.594 34.265 112.568 34.265ZM114.843 27.37L105.743 8.19H110.748L119.358 27.37H114.843Z" fill="black"/>
<path d="M140.996 1.05H145.546V28H140.996V1.05ZM153.421 7.7C155.288 7.7 156.874 8.07333 158.181 8.82C159.488 9.56667 160.479 10.64 161.156 12.04C161.856 13.4167 162.206 15.085 162.206 17.045V28H157.656V17.78C157.656 15.7033 157.166 14.14 156.186 13.09C155.229 12.0167 153.818 11.48 151.951 11.48C150.668 11.48 149.536 11.7717 148.556 12.355C147.599 12.915 146.853 13.7083 146.316 14.735C145.803 15.7617 145.546 16.9633 145.546 18.34L143.936 17.465C144.146 15.4117 144.683 13.6617 145.546 12.215C146.409 10.7683 147.518 9.66 148.871 8.89C150.224 8.09667 151.741 7.7 153.421 7.7ZM185.248 28L184.478 20.65L185.388 18.095L184.478 15.575L185.248 8.19H189.938L188.888 18.095L189.938 28H185.248ZM186.648 18.095C186.204 20.1717 185.469 21.9917 184.443 23.555C183.416 25.1183 182.144 26.3317 180.628 27.195C179.134 28.0583 177.466 28.49 175.623 28.49C173.686 28.49 171.971 28.0583 170.478 27.195C168.984 26.3083 167.818 25.0833 166.978 23.52C166.138 21.9567 165.718 20.1483 165.718 18.095C165.718 16.0183 166.138 14.21 166.978 12.67C167.818 11.1067 168.984 9.89333 170.478 9.03C171.971 8.14333 173.686 7.7 175.623 7.7C177.466 7.7 179.134 8.13167 180.628 8.995C182.144 9.85833 183.416 11.0717 184.443 12.635C185.493 14.175 186.228 15.995 186.648 18.095ZM170.338 18.095C170.338 19.425 170.606 20.6033 171.143 21.63C171.703 22.6333 172.461 23.4267 173.418 24.01C174.374 24.57 175.471 24.85 176.708 24.85C177.968 24.85 179.134 24.57 180.208 24.01C181.281 23.4267 182.226 22.6333 183.043 21.63C183.883 20.6033 184.548 19.425 185.038 18.095C184.548 16.765 183.883 15.5983 183.043 14.595C182.226 13.5683 181.281 12.775 180.208 12.215C179.134 11.6317 177.968 11.34 176.708 11.34C175.471 11.34 174.374 11.6317 173.418 12.215C172.461 12.775 171.703 13.5683 171.143 14.595C170.606 15.5983 170.338 16.765 170.338 18.095ZM194.316 1.05H198.866V15.015L198.166 16.31V19.985L198.866 21.455V28H194.316V1.05ZM197.046 18.095C197.49 15.995 198.225 14.175 199.251 12.635C200.278 11.0717 201.538 9.85833 203.031 8.995C204.548 8.13167 206.228 7.7 208.071 7.7C210.008 7.7 211.723 8.14333 213.216 9.03C214.71 9.89333 215.876 11.1067 216.716 12.67C217.556 14.21 217.976 16.0183 217.976 18.095C217.976 20.1483 217.556 21.9567 216.716 23.52C215.876 25.0833 214.71 26.3083 213.216 27.195C211.723 28.0583 210.008 28.49 208.071 28.49C206.228 28.49 204.548 28.0583 203.031 27.195C201.538 26.3317 200.278 25.1183 199.251 23.555C198.225 21.9917 197.49 20.1717 197.046 18.095ZM213.356 18.095C213.356 16.765 213.076 15.5983 212.516 14.595C211.98 13.5683 211.233 12.775 210.276 12.215C209.32 11.6317 208.223 11.34 206.986 11.34C205.75 11.34 204.583 11.6317 203.486 12.215C202.413 12.775 201.468 13.5683 200.651 14.595C199.835 15.5983 199.17 16.765 198.656 18.095C199.17 19.425 199.835 20.6033 200.651 21.63C201.468 22.6333 202.413 23.4267 203.486 24.01C204.583 24.57 205.75 24.85 206.986 24.85C208.223 24.85 209.32 24.57 210.276 24.01C211.233 23.4267 211.98 22.6333 212.516 21.63C213.076 20.6033 213.356 19.425 213.356 18.095ZM221.763 8.05L224.038 8.47L226.313 8.05V28H221.763V8.05ZM224.038 5.565C223.174 5.565 222.463 5.33167 221.903 4.865C221.343 4.375 221.063 3.745 221.063 2.975C221.063 2.205 221.343 1.58667 221.903 1.12C222.463 0.629999 223.174 0.384999 224.038 0.384999C224.924 0.384999 225.636 0.629999 226.173 1.12C226.733 1.58667 227.013 2.205 227.013 2.975C227.013 3.745 226.733 4.375 226.173 4.865C225.636 5.33167 224.924 5.565 224.038 5.565ZM228.888 11.69V9.625L233.123 8.54L235.013 3.01H237.673V8.19H246.878V11.69H237.673V20.265C237.673 21.9217 238.023 23.0883 238.723 23.765C239.446 24.4183 240.613 24.745 242.223 24.745C243.25 24.745 244.16 24.64 244.953 24.43C245.746 24.1967 246.505 23.87 247.228 23.45V27.195C246.621 27.4983 245.758 27.79 244.638 28.07C243.541 28.35 242.41 28.49 241.243 28.49C239.306 28.49 237.743 28.175 236.553 27.545C235.363 26.8917 234.488 26.005 233.928 24.885C233.391 23.7417 233.123 22.435 233.123 20.965V11.69H228.888ZM271.052 21.98C271.052 23.31 270.679 24.465 269.932 25.445C269.185 26.425 268.054 27.1833 266.537 27.72C265.02 28.2333 263.119 28.49 260.832 28.49C258.475 28.49 256.434 28.1983 254.707 27.615C252.98 27.0083 251.639 26.1683 250.682 25.095C249.749 23.9983 249.247 22.7383 249.177 21.315H253.797C253.937 22.0617 254.31 22.7267 254.917 23.31C255.547 23.87 256.364 24.3017 257.367 24.605C258.394 24.9083 259.56 25.06 260.867 25.06C262.757 25.06 264.18 24.8383 265.137 24.395C266.094 23.9283 266.572 23.2283 266.572 22.295C266.572 21.665 266.245 21.1867 265.592 20.86C264.962 20.5333 263.76 20.2883 261.987 20.125L258.102 19.775C256.002 19.5883 254.345 19.215 253.132 18.655C251.919 18.0717 251.055 17.3717 250.542 16.555C250.029 15.715 249.772 14.8283 249.772 13.895C249.772 12.5417 250.192 11.41 251.032 10.5C251.872 9.59 253.039 8.90167 254.532 8.435C256.025 7.945 257.764 7.7 259.747 7.7C261.8 7.7 263.632 7.99167 265.242 8.575C266.852 9.135 268.135 9.92833 269.092 10.955C270.049 11.9583 270.585 13.125 270.702 14.455H266.082C265.989 13.9183 265.709 13.405 265.242 12.915C264.799 12.4017 264.11 11.9817 263.177 11.655C262.267 11.305 261.042 11.13 259.502 11.13C257.869 11.13 256.585 11.34 255.652 11.76C254.742 12.18 254.287 12.7983 254.287 13.615C254.287 14.1283 254.567 14.5717 255.127 14.945C255.687 15.295 256.725 15.54 258.242 15.68L263.247 16.135C265.254 16.3217 266.817 16.6833 267.937 17.22C269.08 17.7333 269.885 18.3983 270.352 19.215C270.819 20.0317 271.052 20.9533 271.052 21.98Z" fill="#A78BFA"/>
<mask id="mask0_11_14" style="mask-type:alpha" maskUnits="userSpaceOnUse" x="54" y="38" width="51" height="13">
<rect x="54" y="38" width="51" height="13" rx="6.5" fill="#D9D9D9"/>
</mask>
<g mask="url(#mask0_11_14)">
<path d="M108.435 24C108.435 38.2648 95.5798 50 79.5 50C63.4202 50 50.5652 38.2648 50.5652 24C50.5652 9.73516 63.4202 -2 79.5 -2C95.5798 -2 108.435 9.73516 108.435 24Z" stroke="black" stroke-width="2"/>
</g>
</svg>
