<svg width="50" height="50" viewBox="0 0 50 50" fill="none" xmlns="http://www.w3.org/2000/svg">
<path fill-rule="evenodd" clip-rule="evenodd" d="M25 40C33.2843 40 40 33.2843 40 25C40 16.7157 33.2843 10 25 10C16.7157 10 10 16.7157 10 25C10 33.2843 16.7157 40 25 40ZM25 50C38.8071 50 50 38.8071 50 25C50 11.1929 38.8071 0 25 0C11.1929 0 0 11.1929 0 25C0 38.8071 11.1929 50 25 50Z" fill="#E4E4E7"/>
<mask id="mask0_45_7" style="mask-type:alpha" maskUnits="userSpaceOnUse" x="-10" y="-39" width="71" height="71">
<path d="M25.3553 -39L60.7107 -3.64466L25.3553 31.7107L-9.99999 -3.64466L25.3553 -39Z" fill="#D9D9D9"/>
</mask>
<g mask="url(#mask0_45_7)">
<path fill-rule="evenodd" clip-rule="evenodd" d="M25 40C33.2843 40 40 33.2843 40 25C40 16.7157 33.2843 10 25 10C16.7157 10 10 16.7157 10 25C10 33.2843 16.7157 40 25 40ZM25 50C38.8071 50 50 38.8071 50 25C50 11.1929 38.8071 0 25 0C11.1929 0 0 11.1929 0 25C0 38.8071 11.1929 50 25 50Z" fill="white"/>
</g>
</svg>
